<mxfile host="app.diagrams.net" modified="2023-05-04T18:40:52.174Z" agent="Mozilla/5.0 (Windows NT 10.0; Win64; x64) AppleWebKit/537.36 (KHTML, like Gecko) Chrome/112.0.0.0 Safari/537.36" etag="0rCku8DzYmTDmEIScy2T" version="21.2.7" type="github">
  <diagram name="Page-1" id="DtZobY2X2sVVsuLWlbr4">
    <mxGraphModel dx="1050" dy="573" grid="1" gridSize="10" guides="1" tooltips="1" connect="1" arrows="1" fold="1" page="1" pageScale="1" pageWidth="827" pageHeight="1169" math="0" shadow="0">
      <root>
        <mxCell id="0" />
        <mxCell id="1" parent="0" />
        <mxCell id="oAflUMoIZbmMvB4QjSwX-1" value="&lt;font style=&quot;font-size: 17px;&quot;&gt;Logistics&lt;/font&gt;" style="swimlane;fontStyle=0;childLayout=stackLayout;horizontal=1;startSize=30;horizontalStack=0;resizeParent=1;resizeParentMax=0;resizeLast=0;collapsible=1;marginBottom=0;whiteSpace=wrap;html=1;rounded=0;flipH=0;flipV=0;" vertex="1" parent="1">
          <mxGeometry x="350" y="40" width="280" height="300" as="geometry">
            <mxRectangle x="350" y="40" width="110" height="30" as="alternateBounds" />
          </mxGeometry>
        </mxCell>
        <mxCell id="oAflUMoIZbmMvB4QjSwX-2" value="- mainDistributionCenter: Location" style="text;strokeColor=none;fillColor=none;align=left;verticalAlign=middle;spacingLeft=4;spacingRight=4;overflow=hidden;points=[[0,0.5],[1,0.5]];portConstraint=eastwest;rotatable=0;whiteSpace=wrap;html=1;" vertex="1" parent="oAflUMoIZbmMvB4QjSwX-1">
          <mxGeometry y="30" width="280" height="30" as="geometry" />
        </mxCell>
        <mxCell id="oAflUMoIZbmMvB4QjSwX-3" value="- smallerDistributionCenters: List&amp;lt;Location&amp;gt;" style="text;strokeColor=none;fillColor=none;align=left;verticalAlign=middle;spacingLeft=4;spacingRight=4;overflow=hidden;points=[[0,0.5],[1,0.5]];portConstraint=eastwest;rotatable=0;whiteSpace=wrap;html=1;" vertex="1" parent="oAflUMoIZbmMvB4QjSwX-1">
          <mxGeometry y="60" width="280" height="30" as="geometry" />
        </mxCell>
        <mxCell id="oAflUMoIZbmMvB4QjSwX-5" value="- trucks: List&amp;lt;Truck&amp;gt;" style="text;strokeColor=none;fillColor=none;align=left;verticalAlign=middle;spacingLeft=4;spacingRight=4;overflow=hidden;points=[[0,0.5],[1,0.5]];portConstraint=eastwest;rotatable=0;whiteSpace=wrap;html=1;" vertex="1" parent="oAflUMoIZbmMvB4QjSwX-1">
          <mxGeometry y="90" width="280" height="30" as="geometry" />
        </mxCell>
        <mxCell id="oAflUMoIZbmMvB4QjSwX-4" value="- smallTrucks: List&amp;lt;SmallTruck&amp;gt;" style="text;strokeColor=none;fillColor=none;align=left;verticalAlign=middle;spacingLeft=4;spacingRight=4;overflow=hidden;points=[[0,0.5],[1,0.5]];portConstraint=eastwest;rotatable=0;whiteSpace=wrap;html=1;" vertex="1" parent="oAflUMoIZbmMvB4QjSwX-1">
          <mxGeometry y="120" width="280" height="30" as="geometry" />
        </mxCell>
        <mxCell id="oAflUMoIZbmMvB4QjSwX-6" value="- electricBicycles: List&amp;lt;ElectricBicycle&amp;gt;" style="text;strokeColor=none;fillColor=none;align=left;verticalAlign=middle;spacingLeft=4;spacingRight=4;overflow=hidden;points=[[0,0.5],[1,0.5]];portConstraint=eastwest;rotatable=0;whiteSpace=wrap;html=1;" vertex="1" parent="oAflUMoIZbmMvB4QjSwX-1">
          <mxGeometry y="150" width="280" height="30" as="geometry" />
        </mxCell>
        <mxCell id="oAflUMoIZbmMvB4QjSwX-7" value="- drivers: List&amp;lt;Driver&amp;gt;" style="text;strokeColor=none;fillColor=none;align=left;verticalAlign=middle;spacingLeft=4;spacingRight=4;overflow=hidden;points=[[0,0.5],[1,0.5]];portConstraint=eastwest;rotatable=0;whiteSpace=wrap;html=1;" vertex="1" parent="oAflUMoIZbmMvB4QjSwX-1">
          <mxGeometry y="180" width="280" height="30" as="geometry" />
        </mxCell>
        <mxCell id="oAflUMoIZbmMvB4QjSwX-8" value="- loadCarriers: List&amp;lt;LoadCarrier&amp;gt;" style="text;strokeColor=none;fillColor=none;align=left;verticalAlign=middle;spacingLeft=4;spacingRight=4;overflow=hidden;points=[[0,0.5],[1,0.5]];portConstraint=eastwest;rotatable=0;whiteSpace=wrap;html=1;" vertex="1" parent="oAflUMoIZbmMvB4QjSwX-1">
          <mxGeometry y="210" width="280" height="30" as="geometry" />
        </mxCell>
        <mxCell id="oAflUMoIZbmMvB4QjSwX-9" value="- dailyRoutePlans: List&amp;lt;RoutePlan&amp;gt;" style="text;strokeColor=none;fillColor=none;align=left;verticalAlign=middle;spacingLeft=4;spacingRight=4;overflow=hidden;points=[[0,0.5],[1,0.5]];portConstraint=eastwest;rotatable=0;whiteSpace=wrap;html=1;" vertex="1" parent="oAflUMoIZbmMvB4QjSwX-1">
          <mxGeometry y="240" width="280" height="30" as="geometry" />
        </mxCell>
        <mxCell id="oAflUMoIZbmMvB4QjSwX-16" value="+ createRoutePlans(): void&amp;nbsp;" style="text;strokeColor=none;fillColor=none;align=left;verticalAlign=middle;spacingLeft=4;spacingRight=4;overflow=hidden;points=[[0,0.5],[1,0.5]];portConstraint=eastwest;rotatable=0;whiteSpace=wrap;html=1;horizontal=1;" vertex="1" parent="oAflUMoIZbmMvB4QjSwX-1">
          <mxGeometry y="270" width="280" height="30" as="geometry" />
        </mxCell>
        <mxCell id="oAflUMoIZbmMvB4QjSwX-23" value="" style="endArrow=none;html=1;rounded=0;exitX=-0.003;exitY=0.02;exitDx=0;exitDy=0;exitPerimeter=0;entryX=1.006;entryY=-0.06;entryDx=0;entryDy=0;entryPerimeter=0;" edge="1" parent="oAflUMoIZbmMvB4QjSwX-1" source="oAflUMoIZbmMvB4QjSwX-16" target="oAflUMoIZbmMvB4QjSwX-16">
          <mxGeometry width="50" height="50" relative="1" as="geometry">
            <mxPoint x="50" y="270" as="sourcePoint" />
            <mxPoint x="100" y="220" as="targetPoint" />
          </mxGeometry>
        </mxCell>
      </root>
    </mxGraphModel>
  </diagram>
</mxfile>
